<?xml version="1.0" encoding="utf-8"?>
<!-- Generator: Adobe Illustrator 24.3.0, SVG Export Plug-In . SVG Version: 6.00 Build 0)  -->
<svg version="1.1" id="Layer_1" xmlns="http://www.w3.org/2000/svg" xmlns:xlink="http://www.w3.org/1999/xlink" x="0px" y="0px"
	 viewBox="0 0 640 512" style="enable-background:new 0 0 640 512;" xml:space="preserve">
<style type="text/css">
	.st0{fill:#FFFFFF;}
	.st1{fill:#A5ACB9;}
</style>
<path d="M128,192H96c-8.8,0-16,7.2-16,16v64c0,8.8,7.2,16,16,16h32c8.8,0,16-7.2,16-16v-64C144,199.2,136.8,192,128,192z"/>
<path d="M128,320H96c-8.8,0-16,7.2-16,16v64c0,8.8,7.2,16,16,16h32c8.8,0,16-7.2,16-16v-64C144,327.2,136.8,320,128,320z"/>
<path class="st0" d="M320,352c-35.3,0-64,28.7-64,64v96h128v-96C384,380.7,355.3,352,320,352z"/>
<path class="st0" d="M320,88c-48.6,0-88,39.4-88,88s39.4,88,88,88c48.6,0,88-39.4,88-88S368.6,88,320,88z M352,192h-32
	c-8.8,0-16-7.2-16-16v-32c0-8.8,7.2-16,16-16s16,7.2,16,16v16h16c8.8,0,16,7.2,16,16S360.8,192,352,192z"/>
<path d="M544,192h-32c-8.8,0-16,7.2-16,16v64c0,8.8,7.2,16,16,16h32c8.8,0,16-7.2,16-16v-64C560,199.2,552.8,192,544,192z"/>
<path d="M544,320h-32c-8.8,0-16,7.2-16,16v64c0,8.8,7.2,16,16,16h32c8.8,0,16-7.2,16-16v-64C560,327.2,552.8,320,544,320z"/>
<path d="M48,512h208v0H46.4C46.9,512,47.5,512,48,512z"/>
<path d="M318.9,0h2.2C320.4,0,319.6,0,318.9,0z"/>
<path d="M384,512h208c0.5,0,1.1,0,1.6,0L384,512L384,512z"/>
<path d="M352,160h-16v-16c0-8.8-7.2-16-16-16s-16,7.2-16,16v32c0,8.8,7.2,16,16,16h32c8.8,0,16-7.2,16-16S360.8,160,352,160z"/>
<path class="st1" d="M640,464V144c0-26.5-21.5-48-48-48H473.7L337.8,5.4C332.7,2,326.9,0.2,321.1,0h-2.2c-5.8,0.2-11.6,2-16.7,5.4
	L166.3,96H48c-26.5,0-48,21.5-48,48v320c0,26,20.7,47.1,46.4,48H256v-96c0-35.3,28.7-64,64-64s64,28.7,64,64v96h209.6
	C619.3,511.1,640,490,640,464z M144,400c0,8.8-7.2,16-16,16H96c-8.8,0-16-7.2-16-16v-64c0-8.8,7.2-16,16-16h32c8.8,0,16,7.2,16,16
	V400z M144,272c0,8.8-7.2,16-16,16H96c-8.8,0-16-7.2-16-16v-64c0-8.8,7.2-16,16-16h32c8.8,0,16,7.2,16,16V272z M320,264
	c-48.6,0-88-39.4-88-88s39.4-88,88-88c48.6,0,88,39.4,88,88S368.6,264,320,264z M560,400c0,8.8-7.2,16-16,16h-32
	c-8.8,0-16-7.2-16-16v-64c0-8.8,7.2-16,16-16h32c8.8,0,16,7.2,16,16V400z M560,272c0,8.8-7.2,16-16,16h-32c-8.8,0-16-7.2-16-16v-64
	c0-8.8,7.2-16,16-16h32c8.8,0,16,7.2,16,16V272z"/>
</svg>
